<?xml version="1.0" encoding="UTF-8" standalone="no"?> <svg xmlns="http://www.w3.org/2000/svg" xmlns:xlink="http://www.w3.org/1999/xlink" style="isolation:isolate" viewBox="0 0 3000 500" width="3000pt" height="500pt"><defs><clipPath id="_clipPath_gEeoefoItW5QFV0HNj83XkMUS50K2AM4"><rect width="3000" height="500"></rect></clipPath></defs><g clip-path="url(#_clipPath_gEeoefoItW5QFV0HNj83XkMUS50K2AM4)"><defs><filter id="FElaMMPRYBeyYrNWB34Yf6KQsoAyIETh" x="-200%" y="-200%" width="400%" height="400%" filterUnits="objectBoundingBox" color-interpolation-filters="sRGB"><feGaussianBlur xmlns="http://www.w3.org/2000/svg" stdDeviation="21.46804531419514"></feGaussianBlur></filter></defs><g opacity="0.35" filter="url(#FElaMMPRYBeyYrNWB34Yf6KQsoAyIETh)"><path d=" M 921.025 23.446 C 1087.426 -172.301 1232.935 -322.371 1245.76 -311.468 C 1258.586 -300.565 1133.902 -132.792 967.501 62.955 C 801.1 258.701 655.591 408.771 642.766 397.869 C 629.94 386.966 754.624 219.193 921.025 23.446 Z " fill="rgb(56,215,211)"></path></g><defs><filter id="z4So7KNBm9naCZ9TufR050DBX75rws8Q" x="-200%" y="-200%" width="400%" height="400%" filterUnits="objectBoundingBox" color-interpolation-filters="sRGB"><feGaussianBlur xmlns="http://www.w3.org/2000/svg" stdDeviation="21.46804531419514"></feGaussianBlur></filter></defs><g opacity="0.35" filter="url(#z4So7KNBm9naCZ9TufR050DBX75rws8Q)"><path d=" M 1158.357 -77.528 C 1324.758 -273.274 1470.267 -423.344 1483.093 -412.442 C 1495.918 -401.539 1371.235 -233.766 1204.834 -38.019 C 1038.433 157.728 892.924 307.798 880.098 296.895 C 867.273 285.992 991.956 118.219 1158.357 -77.528 Z " fill="rgb(255,136,123)"></path></g><defs><filter id="DaZt2ArTu5G42EBdK5wcIlDDaSqTFmVk" x="-200%" y="-200%" width="400%" height="400%" filterUnits="objectBoundingBox" color-interpolation-filters="sRGB"><feGaussianBlur xmlns="http://www.w3.org/2000/svg" stdDeviation="21.46804531419514"></feGaussianBlur></filter></defs><g opacity="0.35" filter="url(#DaZt2ArTu5G42EBdK5wcIlDDaSqTFmVk)"><path d=" M 1391.166 -159.981 C 1557.567 -355.728 1703.076 -505.798 1715.902 -494.895 C 1728.727 -483.992 1604.044 -316.219 1437.643 -120.472 C 1271.242 75.274 1125.733 225.344 1112.907 214.442 C 1100.082 203.539 1224.765 35.766 1391.166 -159.981 Z " fill="rgb(54,81,135)"></path></g><defs><filter id="gGmh2U7zNhSZa9FIrWgLRQV2YSnpEDSy" x="-200%" y="-200%" width="400%" height="400%" filterUnits="objectBoundingBox" color-interpolation-filters="sRGB"><feGaussianBlur xmlns="http://www.w3.org/2000/svg" stdDeviation="21.46804531419514"></feGaussianBlur></filter></defs><g opacity="0.35" filter="url(#gGmh2U7zNhSZa9FIrWgLRQV2YSnpEDSy)"><path d=" M 500.216 -65.101 C 666.617 -260.847 812.126 -410.917 824.952 -400.015 C 837.777 -389.112 713.093 -221.339 546.692 -25.592 C 380.291 170.155 234.782 320.225 221.957 309.322 C 209.131 298.419 333.815 130.646 500.216 -65.101 Z " fill="rgb(56,215,211)"></path></g><defs><filter id="x2l5361QrCkMLmmo1HH4JwLyhsrjzOfn" x="-200%" y="-200%" width="400%" height="400%" filterUnits="objectBoundingBox" color-interpolation-filters="sRGB"><feGaussianBlur xmlns="http://www.w3.org/2000/svg" stdDeviation="21.46804531419514"></feGaussianBlur></filter></defs><g opacity="0.35" filter="url(#x2l5361QrCkMLmmo1HH4JwLyhsrjzOfn)"><path d=" M 737.548 -166.074 C 903.949 -361.821 1049.458 -511.891 1062.284 -500.988 C 1075.109 -490.085 950.426 -322.312 784.025 -126.565 C 617.624 69.181 472.115 219.251 459.289 208.348 C 446.464 197.446 571.148 29.673 737.548 -166.074 Z " fill="rgb(255,136,123)"></path></g><defs><filter id="lG2FMxCOywsumLXzPmjpkL1kypxXJ4v8" x="-200%" y="-200%" width="400%" height="400%" filterUnits="objectBoundingBox" color-interpolation-filters="sRGB"><feGaussianBlur xmlns="http://www.w3.org/2000/svg" stdDeviation="21.46804531419514"></feGaussianBlur></filter></defs><g opacity="0.35" filter="url(#lG2FMxCOywsumLXzPmjpkL1kypxXJ4v8)"><path d=" M 970.357 -248.528 C 1136.758 -444.274 1282.267 -594.344 1295.093 -583.442 C 1307.918 -572.539 1183.235 -404.766 1016.834 -209.019 C 850.433 -13.272 704.924 136.798 692.098 125.895 C 679.273 114.992 803.956 -52.781 970.357 -248.528 Z " fill="rgb(54,81,135)"></path></g><defs><filter id="pWhaiKHColFJllCfJuvbPNFKdbyjOs7i" x="-200%" y="-200%" width="400%" height="400%" filterUnits="objectBoundingBox" color-interpolation-filters="sRGB"><feGaussianBlur xmlns="http://www.w3.org/2000/svg" stdDeviation="21.46804531419514"></feGaussianBlur></filter></defs><g opacity="0.35" filter="url(#pWhaiKHColFJllCfJuvbPNFKdbyjOs7i)"><path d=" M 921.025 23.446 C 1087.426 -172.301 1232.935 -322.371 1245.76 -311.468 C 1258.586 -300.565 1133.902 -132.792 967.501 62.955 C 801.1 258.701 655.591 408.771 642.766 397.869 C 629.94 386.966 754.624 219.193 921.025 23.446 Z " fill="rgb(56,215,211)"></path></g><defs><filter id="zOyzDUW2pavOwyLeqemN9zARJkhnnn2B" x="-200%" y="-200%" width="400%" height="400%" filterUnits="objectBoundingBox" color-interpolation-filters="sRGB"><feGaussianBlur xmlns="http://www.w3.org/2000/svg" stdDeviation="21.46804531419514"></feGaussianBlur></filter></defs><g opacity="0.35" filter="url(#zOyzDUW2pavOwyLeqemN9zARJkhnnn2B)"><path d=" M 1158.357 -77.528 C 1324.758 -273.274 1470.267 -423.344 1483.093 -412.442 C 1495.918 -401.539 1371.235 -233.766 1204.834 -38.019 C 1038.433 157.728 892.924 307.798 880.098 296.895 C 867.273 285.992 991.956 118.219 1158.357 -77.528 Z " fill="rgb(255,136,123)"></path></g><defs><filter id="TNwafUt5giaX85NkSfwOlEiXtyUCjKyy" x="-200%" y="-200%" width="400%" height="400%" filterUnits="objectBoundingBox" color-interpolation-filters="sRGB"><feGaussianBlur xmlns="http://www.w3.org/2000/svg" stdDeviation="21.46804531419514"></feGaussianBlur></filter></defs><g opacity="0.35" filter="url(#TNwafUt5giaX85NkSfwOlEiXtyUCjKyy)"><path d=" M 1391.166 -159.981 C 1557.567 -355.728 1703.076 -505.798 1715.902 -494.895 C 1728.727 -483.992 1604.044 -316.219 1437.643 -120.472 C 1271.242 75.274 1125.733 225.344 1112.907 214.442 C 1100.082 203.539 1224.765 35.766 1391.166 -159.981 Z " fill="rgb(54,81,135)"></path></g><defs><filter id="Bvfa2kPkIcEA6KhJrdJeVWaluIdsp9I0" x="-200%" y="-200%" width="400%" height="400%" filterUnits="objectBoundingBox" color-interpolation-filters="sRGB"><feGaussianBlur xmlns="http://www.w3.org/2000/svg" stdDeviation="21.46804531419514"></feGaussianBlur></filter></defs><g opacity="0.35" filter="url(#Bvfa2kPkIcEA6KhJrdJeVWaluIdsp9I0)"><path d=" M 500.216 -65.101 C 666.617 -260.847 812.126 -410.917 824.952 -400.015 C 837.777 -389.112 713.093 -221.339 546.692 -25.592 C 380.291 170.155 234.782 320.225 221.957 309.322 C 209.131 298.419 333.815 130.646 500.216 -65.101 Z " fill="rgb(56,215,211)"></path></g><defs><filter id="2RM0qCXPCDWNyq7XRKTs2s8BVy35tCW1" x="-200%" y="-200%" width="400%" height="400%" filterUnits="objectBoundingBox" color-interpolation-filters="sRGB"><feGaussianBlur xmlns="http://www.w3.org/2000/svg" stdDeviation="21.46804531419514"></feGaussianBlur></filter></defs><g opacity="0.35" filter="url(#2RM0qCXPCDWNyq7XRKTs2s8BVy35tCW1)"><path d=" M 737.548 -166.074 C 903.949 -361.821 1049.458 -511.891 1062.284 -500.988 C 1075.109 -490.085 950.426 -322.312 784.025 -126.565 C 617.624 69.181 472.115 219.251 459.289 208.348 C 446.464 197.446 571.148 29.673 737.548 -166.074 Z " fill="rgb(255,136,123)"></path></g><defs><filter id="uARfP9mKOo58fSJlrw73otfN7TPIzNvw" x="-200%" y="-200%" width="400%" height="400%" filterUnits="objectBoundingBox" color-interpolation-filters="sRGB"><feGaussianBlur xmlns="http://www.w3.org/2000/svg" stdDeviation="21.46804531419514"></feGaussianBlur></filter></defs><g opacity="0.35" filter="url(#uARfP9mKOo58fSJlrw73otfN7TPIzNvw)"><path d=" M 970.357 -248.528 C 1136.758 -444.274 1282.267 -594.344 1295.093 -583.442 C 1307.918 -572.539 1183.235 -404.766 1016.834 -209.019 C 850.433 -13.272 704.924 136.798 692.098 125.895 C 679.273 114.992 803.956 -52.781 970.357 -248.528 Z " fill="rgb(54,81,135)"></path></g><defs><filter id="k4WONuegBTZCHh202GM7SKGtyXRyEaG9" x="-200%" y="-200%" width="400%" height="400%" filterUnits="objectBoundingBox" color-interpolation-filters="sRGB"><feGaussianBlur xmlns="http://www.w3.org/2000/svg" stdDeviation="21.46804531419514"></feGaussianBlur></filter></defs><g opacity="0.35" filter="url(#k4WONuegBTZCHh202GM7SKGtyXRyEaG9)"><path d=" M 1932.975 5.019 C 2099.376 -190.728 2244.885 -340.798 2257.711 -329.895 C 2270.536 -318.992 2145.852 -151.219 1979.452 44.528 C 1813.051 240.274 1667.542 390.344 1654.716 379.442 C 1641.891 368.539 1766.574 200.766 1932.975 5.019 Z " fill="rgb(56,215,211)"></path></g><defs><filter id="2m3TtKRwWHArqvthlUJtSbIbgYnR4z4w" x="-200%" y="-200%" width="400%" height="400%" filterUnits="objectBoundingBox" color-interpolation-filters="sRGB"><feGaussianBlur xmlns="http://www.w3.org/2000/svg" stdDeviation="21.46804531419514"></feGaussianBlur></filter></defs><g opacity="0.35" filter="url(#2m3TtKRwWHArqvthlUJtSbIbgYnR4z4w)"><path d=" M 2170.308 -95.955 C 2336.709 -291.701 2482.218 -441.771 2495.043 -430.869 C 2507.869 -419.966 2383.185 -252.193 2216.784 -56.446 C 2050.383 139.301 1904.874 289.371 1892.048 278.468 C 1879.223 267.565 2003.907 99.792 2170.308 -95.955 Z " fill="rgb(255,136,123)"></path></g><defs><filter id="I7OGHxJ51HBFkAlXWFO6mr5SUtu7jCeg" x="-200%" y="-200%" width="400%" height="400%" filterUnits="objectBoundingBox" color-interpolation-filters="sRGB"><feGaussianBlur xmlns="http://www.w3.org/2000/svg" stdDeviation="21.46804531419514"></feGaussianBlur></filter></defs><g opacity="0.35" filter="url(#I7OGHxJ51HBFkAlXWFO6mr5SUtu7jCeg)"><path d=" M 2403.117 -178.408 C 2569.517 -374.155 2715.027 -524.225 2727.852 -513.322 C 2740.678 -502.419 2615.994 -334.646 2449.593 -138.899 C 2283.192 56.847 2137.683 206.917 2124.857 196.015 C 2112.032 185.112 2236.716 17.339 2403.117 -178.408 Z " fill="rgb(54,81,135)"></path></g><defs><filter id="fOUMx1qlYfREOq90isO09CPRLATKimyN" x="-200%" y="-200%" width="400%" height="400%" filterUnits="objectBoundingBox" color-interpolation-filters="sRGB"><feGaussianBlur xmlns="http://www.w3.org/2000/svg" stdDeviation="21.46804531419514"></feGaussianBlur></filter></defs><g opacity="0.35" filter="url(#fOUMx1qlYfREOq90isO09CPRLATKimyN)"><path d=" M 1512.166 -83.528 C 1678.567 -279.274 1824.076 -429.344 1836.902 -418.442 C 1849.727 -407.539 1725.044 -239.766 1558.643 -44.019 C 1392.242 151.728 1246.733 301.798 1233.907 290.895 C 1221.082 279.992 1345.765 112.219 1512.166 -83.528 Z " fill="rgb(56,215,211)"></path></g><defs><filter id="PAkXjOjAXRkqZFRYWapE3O9TlUaZLt2p" x="-200%" y="-200%" width="400%" height="400%" filterUnits="objectBoundingBox" color-interpolation-filters="sRGB"><feGaussianBlur xmlns="http://www.w3.org/2000/svg" stdDeviation="21.46804531419514"></feGaussianBlur></filter></defs><g opacity="0.35" filter="url(#PAkXjOjAXRkqZFRYWapE3O9TlUaZLt2p)"><path d=" M 1749.499 -184.501 C 1915.9 -380.248 2061.409 -530.318 2074.234 -519.415 C 2087.06 -508.512 1962.376 -340.739 1795.975 -144.992 C 1629.574 50.754 1484.065 200.824 1471.24 189.921 C 1458.414 179.019 1583.098 11.246 1749.499 -184.501 Z " fill="rgb(255,136,123)"></path></g><defs><filter id="LKtJIiULntQvlPBJQCN3eirVynaRLJ9r" x="-200%" y="-200%" width="400%" height="400%" filterUnits="objectBoundingBox" color-interpolation-filters="sRGB"><feGaussianBlur xmlns="http://www.w3.org/2000/svg" stdDeviation="21.46804531419514"></feGaussianBlur></filter></defs><g opacity="0.35" filter="url(#LKtJIiULntQvlPBJQCN3eirVynaRLJ9r)"><path d=" M 1982.308 -266.955 C 2148.709 -462.701 2294.218 -612.771 2307.043 -601.869 C 2319.869 -590.966 2195.185 -423.193 2028.784 -227.446 C 1862.383 -31.699 1716.874 118.371 1704.048 107.468 C 1691.223 96.565 1815.907 -71.208 1982.308 -266.955 Z " fill="rgb(54,81,135)"></path></g><linearGradient id="_lgradient_1" x1="0" y1="0.5" x2="1" y2="0.5" gradientTransform="matrix(3000,0,0,500,0,0)" gradientUnits="userSpaceOnUse"><stop offset="0%" stop-opacity="0.62" style="stop-color:rgb(255,255,255)"></stop><stop offset="100%" stop-opacity="1" style="stop-color:rgb(255,255,255)"></stop></linearGradient><rect x="0" y="0" width="3000" height="500" transform="matrix(1,0,0,1,0,0)" fill="url(#_lgradient_1)"></rect></g></svg> 