<?xml version="1.0" encoding="utf-8"?>
<svg width="193" height="35" viewBox="0 0 193 35" fill="none" xmlns="http://www.w3.org/2000/svg">
  <g>
    <path d="M16.5059 27.6111C14.867 27.6111 13.4599 27.2926 12.2847 26.6553C11.1094 26.0179 10.1767 25.1266 9.48665 23.9816L8.12807 23.9816L8.12807 27.2224L0 27.2223L2.17623 21.389L5.08745 21.389L5.08745 0L11.0393 0L11.0393 10.2732L11.1687 10.2732C11.7294 9.36578 12.5003 8.65822 13.4815 8.1505C14.4627 7.64278 15.6434 7.38892 17.0235 7.38892C18.8996 7.38892 20.4954 7.81023 21.8108 8.65282C23.1263 9.49542 24.1291 10.6783 24.8191 12.2015C25.5091 13.7246 25.8541 15.4908 25.8541 17.5001C25.8541 19.4877 25.4984 21.2432 24.7868 22.7664C24.0751 24.2895 23.0292 25.4777 21.6491 26.3312C20.269 27.1846 18.5546 27.6111 16.5059 27.6111L16.5059 27.6111ZM16.23 22.4259C17.7611 22.4259 18.8986 21.983 19.6426 21.0972C20.3865 20.2115 20.7585 19.0124 20.7585 17.5C20.7585 15.9876 20.3865 14.7886 19.6426 13.9028C18.8986 13.017 17.7611 12.5741 16.23 12.5741C14.893 12.5741 13.8363 12.9468 13.06 13.6921C12.2837 14.4375 11.8955 15.4691 11.8955 16.787L11.8955 18.213C11.8955 19.5309 12.2837 20.5625 13.06 21.3079C13.8363 22.0533 14.893 22.4259 16.23 22.4259L16.23 22.4259ZM38.7324 27.6111C35.8212 27.6111 33.5299 26.9954 31.8586 25.7639C30.1874 24.5325 29.2871 22.8149 29.1577 20.6112L34.8831 20.6112C35.0556 21.4754 35.4708 22.1127 36.1284 22.5232C36.7862 22.9337 37.7404 23.1389 38.9912 23.1389C40.9321 23.1389 41.9024 22.6312 41.9024 21.6158C41.9024 21.2053 41.7568 20.8758 41.4657 20.6273C41.1746 20.3789 40.6948 20.1899 40.0263 20.0602L35.6918 19.2177C31.7239 18.4399 29.7399 16.5818 29.7399 13.6436C29.7399 11.7423 30.5055 10.2245 32.0366 9.09028C33.5677 7.95602 35.681 7.38889 38.3766 7.38889C41.0722 7.38889 43.1963 7.97222 44.749 9.13888C46.3016 10.3056 47.1426 11.9475 47.272 14.0648L41.5466 14.0648C41.331 13.2222 40.9482 12.6119 40.3982 12.2338C39.8484 11.8557 39.0451 11.6667 37.9885 11.6667C37.1259 11.6667 36.4627 11.7855 35.9991 12.0232C35.5355 12.2608 35.3036 12.6173 35.3036 13.0926C35.3036 13.4383 35.4438 13.73 35.7242 13.9676C36.0045 14.2053 36.425 14.3781 36.9857 14.4861L41.4495 15.3611C43.5198 15.7716 45.04 16.4414 46.0105 17.3704C46.9809 18.2994 47.466 19.5525 47.466 21.1297C47.466 23.1605 46.7167 24.7485 45.218 25.8936C43.7192 27.0386 41.5573 27.6111 38.7324 27.6111L38.7324 27.6111ZM50.6129 35L50.6129 13.6111L47.7017 13.6111L47.7017 7.77777L53.6535 7.77777L53.6535 11.0185L55.012 11.0185C55.7022 9.87346 56.6348 8.98225 57.8101 8.3449C58.9853 7.70756 60.3924 7.38889 62.0313 7.38889C64.0799 7.38889 65.7944 7.81558 67.1745 8.66898C68.5546 9.52238 69.6005 10.7052 70.3121 12.2176C71.0238 13.73 71.3795 15.4908 71.3795 17.5C71.3795 19.5093 71.0346 21.2755 70.3445 22.7987C69.6544 24.3218 68.6516 25.5047 67.3363 26.3473C66.0207 27.1898 64.425 27.6111 62.5489 27.6111C61.1686 27.6111 59.988 27.3573 59.0069 26.8496C58.0257 26.3418 57.2547 25.6343 56.6941 24.7269L56.5647 24.7269L56.5647 35L50.6129 35ZM60.8994 22.4259C62.4305 22.4259 63.568 21.983 64.3121 21.0972C65.056 20.2115 65.428 19.0124 65.428 17.5C65.428 15.9876 65.056 14.7886 64.3121 13.9028C63.568 13.017 62.4305 12.5741 60.8994 12.5741C59.5624 12.5741 58.5058 12.9468 57.7294 13.6921C56.953 14.4375 56.5649 15.4691 56.5649 16.787L56.5649 18.213C56.5649 19.5309 56.953 20.5625 57.7294 21.3079C58.5058 22.0533 59.5624 22.4259 60.8994 22.4259L60.8994 22.4259ZM73.0713 27.2222L73.0713 0L79.0231 0L79.0231 27.2222L73.0713 27.2222ZM81.8467 27.2222L81.8467 7.77777L87.7985 7.77777L87.7985 27.2222L81.8467 27.2222ZM97.1563 27.2222C95.6466 27.2222 94.4767 26.8388 93.6466 26.0718C92.8162 25.3049 92.4012 24.1328 92.4012 22.5556L92.4012 12.4445L89.1665 12.4445L89.1665 7.77779L92.466 7.77779L92.466 1.94443L98.2882 1.94443L98.2882 7.77779L102.558 7.77779L102.558 12.4445L98.3529 12.4445L98.3529 22.5556L103.011 22.5556L103.011 27.2222L97.1563 27.2222ZM117.66 27.2222C116.15 27.2222 114.98 26.8388 114.15 26.0718C113.32 25.3049 112.905 24.1328 112.905 22.5556L112.905 12.4445L109.67 12.4445L109.67 7.77779L112.969 7.77779L112.969 1.94443L118.792 1.94443L118.792 7.77779L123.061 7.77779L123.061 12.4445L118.856 12.4445L118.856 22.5556L123.514 22.5556L123.514 27.2222L117.66 27.2222ZM134.424 27.6111C132.289 27.6111 130.435 27.1953 128.86 26.3635C127.286 25.5317 126.073 24.3542 125.221 22.831C124.37 21.3079 123.944 19.5093 123.944 17.4352C123.944 15.3611 124.359 13.5733 125.189 12.0718C126.019 10.5702 127.205 9.41436 128.747 8.60416C130.289 7.79397 132.106 7.38889 134.198 7.38889C136.268 7.38889 138.047 7.78317 139.535 8.57176C141.023 9.36033 142.16 10.4892 142.948 11.9583C143.735 13.4275 144.128 15.1883 144.128 17.2408L144.128 19.1528L129.669 19.1528C129.907 20.4059 130.424 21.3511 131.222 21.9885C132.02 22.6258 133.077 22.9445 134.392 22.9445C135.449 22.9445 136.273 22.7771 136.866 22.4422C137.459 22.1073 137.885 21.5726 138.144 20.838L144.096 20.838C143.686 22.9553 142.63 24.6135 140.926 25.8126C139.222 27.0117 137.055 27.6111 134.424 27.6111L134.424 27.6111ZM129.767 15.2639L138.436 15.2639C138.242 14.1837 137.794 13.3789 137.093 12.8496C136.392 12.3202 135.438 12.0556 134.231 12.0556C133.045 12.0556 132.074 12.3256 131.319 12.8658C130.564 13.4059 130.047 14.2053 129.767 15.2639L129.767 15.2639ZM154.587 27.6111C151.675 27.6111 149.384 26.9954 147.713 25.7639C146.042 24.5325 145.141 22.8149 145.012 20.6112L150.737 20.6112C150.91 21.4754 151.325 22.1127 151.983 22.5232C152.64 22.9337 153.594 23.1389 154.845 23.1389C156.786 23.1389 157.756 22.6312 157.756 21.6158C157.756 21.2053 157.611 20.8758 157.32 20.6273C157.029 20.3789 156.549 20.1899 155.88 20.0602L151.546 19.2177C147.578 18.4399 145.594 16.5818 145.594 13.6436C145.594 11.7423 146.36 10.2245 147.89 9.09028C149.422 7.95602 151.535 7.38889 154.231 7.38889C156.926 7.38889 159.051 7.97222 160.603 9.13888C162.156 10.3056 162.997 11.9475 163.126 14.0648L157.401 14.0648C157.185 13.2222 156.802 12.6119 156.252 12.2338C155.702 11.8557 154.899 11.6667 153.842 11.6667C152.98 11.6667 152.317 11.7855 151.853 12.0232C151.389 12.2608 151.158 12.6173 151.158 13.0926C151.158 13.4383 151.298 13.73 151.578 13.9676C151.859 14.2053 152.279 14.3781 152.84 14.4861L157.304 15.3611C159.374 15.7716 160.894 16.4414 161.864 17.3704C162.835 18.2994 163.32 19.5525 163.32 21.1297C163.32 23.1605 162.571 24.7485 161.072 25.8936C159.573 27.0386 157.411 27.6111 154.587 27.6111L154.587 27.6111ZM171.48 27.2222C169.971 27.2222 168.801 26.8388 167.971 26.0718C167.141 25.3049 166.726 24.1328 166.726 22.5556L166.726 12.4445L163.491 12.4445L163.491 7.77779L166.79 7.77779L166.79 1.94443L172.613 1.94443L172.613 7.77779L176.882 7.77779L176.882 12.4445L172.677 12.4445L172.677 22.5556L177.335 22.5556L177.335 27.2222L171.48 27.2222Z" fill="#365187" transform="translate(15.665 0)" />
    <path d="M7.40744 20.1898C5.07846 20.1898 3.26164 19.6335 1.95699 18.5209C0.652331 17.4082 0 15.923 0 14.0649C0 12.142 0.684679 10.6567 2.05403 9.60884C3.42338 8.56101 5.38037 8.03707 7.92499 8.03707L13.1329 8.03707L13.1329 7.32408C13.1329 5.55249 12.0115 4.6667 9.76877 4.6667C7.78482 4.6667 6.57721 5.33645 6.14592 6.67595L0.258773 6.67595C0.711632 4.47224 1.73595 2.80865 3.33173 1.68519C4.92752 0.561733 7.06242 3.8147e-06 9.73643 0C12.6908 0 14.9443 0.653552 16.4969 1.96066C18.0496 3.26776 18.8259 5.17442 18.8259 7.6806L18.8259 14.0001L20.7507 14.0001L15.6559 19.8334L15.6559 16.5927L14.2974 16.5927C13.6288 17.7593 12.7447 18.6505 11.6449 19.2663C10.5451 19.882 9.13262 20.1898 7.40744 20.1898L7.40744 20.1898ZM8.31297 15.7176C9.26181 15.7176 10.0974 15.5556 10.8199 15.2315C11.5423 14.9074 12.1084 14.4645 12.5181 13.9028C12.9278 13.341 13.1326 12.7145 13.1326 12.0232L13.1326 11.9259L8.18358 11.9259C6.52311 11.9259 5.69287 12.5417 5.69287 13.7731C5.69287 14.3997 5.92469 14.8804 6.38833 15.2153C6.85197 15.5502 7.49351 15.7176 8.31297 15.7176L8.31297 15.7176Z" fill="#009688" transform="translate(0 7.389)" />
  </g>
</svg>