<?xml version="1.0" encoding="UTF-8" standalone="no"?> <svg xmlns="http://www.w3.org/2000/svg" xmlns:xlink="http://www.w3.org/1999/xlink" xmlns:serif="http://www.serif.com/" width="100%" height="100%" viewBox="0 0 1216 512" version="1.1" xml:space="preserve" style="fill-rule:evenodd;clip-rule:evenodd;stroke-linejoin:round;stroke-miterlimit:2;"> <g transform="matrix(1.05051,0,0,1.05051,-13.0087,-14.0531)"> <path d="M195.344,375.859C209.986,444.511 270.98,496 344,496C427.947,496 496,427.947 496,344C496,270.98 444.511,209.986 375.859,195.344C375.07,215.9 370.98,235.609 364.104,253.958C379.035,255.66 391.167,259.633 400.5,265.875C413.333,274.375 419.75,287 419.75,303.75C419.75,312.667 417.792,320.583 413.875,327.5C409.958,334.417 403.625,339.542 394.875,342.875C404.792,345.375 412.042,350.125 416.625,357.125C421.208,364.125 423.5,372 423.5,380.75C423.5,416.917 400.292,435 353.875,435L280,435L280,351.989C254.806,366.154 226.017,374.681 195.344,375.859Z" style="fill:rgb(255,136,123);fill-rule:nonzero;"></path> </g> <g transform="matrix(1.05051,0,0,1.05051,-13.0087,-14.0531)"> <path d="M326.625,314.994L326.625,328.625L345.75,328.625C355.833,328.625 362.917,327.208 367,324.375C371.083,321.542 373.125,316.958 373.125,310.625C373.125,303.542 371,298.458 366.75,295.375C362.5,292.292 355.625,290.75 346.125,290.75L345.463,290.75C339.842,299.345 333.537,307.453 326.625,314.994Z" style="fill:rgb(255,136,123);fill-rule:nonzero;"></path> </g> <g transform="matrix(1.05051,0,0,1.05051,-13.0087,-14.0531)"> <path d="M353.875,397.375C361.875,397.375 367.708,395.75 371.375,392.5C375.125,389.167 377,384.958 377,379.875C377,366.542 369.917,359.875 355.75,359.875L326.625,359.875L326.625,397.375L353.875,397.375Z" style="fill:rgb(255,136,123);fill-rule:nonzero;"></path> </g> <g transform="matrix(1.05051,0,0,1.05051,-13.0087,-14.0531)"> <path d="M192.292,147.848L212.006,211.666L172.717,211.666L192.292,147.848Z" style="fill:rgb(56,215,211);fill-rule:nonzero;"></path> </g> <g transform="matrix(1.05051,0,0,1.05051,-13.0087,-14.0531)"> <path d="M188,16C93.007,16 16,93.007 16,188C16,282.993 93.007,360 188,360C282.993,360 360,282.993 360,188C360,93.007 282.993,16 188,16ZM159.944,253.565L224.917,253.565L235.19,287L291,287L216.865,85L167.719,85L94,287L149.671,287L159.944,253.565Z" style="fill:rgb(56,215,211);"></path> </g> <g opacity="0.2"> <g transform="matrix(1.05051,0,0,1.05051,-13.0087,-14.0531)"> <path d="M265.182,214.006C288.164,200.041 315.143,192 344,192C346.623,192 349.231,192.066 351.822,192.198C354.545,192.336 357.25,192.546 359.934,192.825C359.348,214.072 354.91,234.356 347.293,253.004C346.905,253.001 346.516,253 346.125,253L280,253L280,257.028L264.389,214.491C264.653,214.328 264.917,214.167 265.182,214.006Z" style="fill:rgb(54,81,135);fill-rule:nonzero;"></path> </g> <g transform="matrix(1.05051,0,0,1.05051,-13.0087,-14.0531)"> <path d="M280,287L235.19,287L224.917,253.565L221.818,253.565C203.082,278.836 192,310.124 192,344C192,349.381 192.28,354.697 192.825,359.934C224.837,359.052 254.663,349.424 280,333.353L280,287Z" style="fill:rgb(54,81,135);fill-rule:nonzero;"></path> </g> </g> <g transform="matrix(1.05051,0,0,1.05051,-13.0087,-14.0531)"> <path d="M664.312,104.008C649.976,96.093 637.507,92.136 626.904,92.136C619.736,92.136 614.136,93.555 610.104,96.392C606.221,99.229 604.28,103.485 604.28,109.16C604.28,114.387 607.117,119.016 612.792,123.048C618.616,126.931 626.307,130.664 635.864,134.248C643.629,137.085 650.275,140.371 655.8,144.104C661.325,147.688 665.88,152.691 669.464,159.112C673.197,165.533 675.064,173.672 675.064,183.528C675.064,192.04 672.824,199.955 668.344,207.272C664.013,214.44 657.592,220.189 649.08,224.52C640.568,228.701 630.413,230.792 618.616,230.792C608.76,230.792 598.979,229.373 589.272,226.536C579.565,223.549 570.531,219.069 562.168,213.096L576.504,187.784C582.179,191.965 588.675,195.4 595.992,198.088C603.309,200.776 609.88,202.12 615.704,202.12C622.573,202.12 628.547,200.701 633.624,197.864C638.701,194.877 641.24,190.099 641.24,183.528C641.24,175.016 633.251,167.624 617.272,161.352C607.864,157.619 600.024,154.035 593.752,150.6C587.48,147.165 582.029,142.237 577.4,135.816C572.92,129.395 570.68,121.331 570.68,111.624C570.68,97.437 575.309,86.013 584.568,77.352C593.976,68.691 606.445,63.987 621.976,63.24C634.221,63.24 644.451,64.659 652.664,67.496C660.877,70.184 668.867,74.067 676.632,79.144L664.312,104.008Z" style="fill:rgb(54,81,135);fill-rule:nonzero;"></path> </g> <g transform="matrix(1.05051,0,0,1.05051,-13.0087,-14.0531)"> <path d="M747.866,64.136C768.026,64.136 783.631,69.139 794.682,79.144C805.732,89 811.258,102.515 811.258,119.688C811.258,129.544 809.316,138.803 805.434,147.464C801.7,155.976 795.503,162.995 786.842,168.52C778.33,174.045 767.279,176.808 753.69,176.808L730.394,176.808L730.394,229L697.914,229L697.914,64.136L747.866,64.136ZM753.466,145.224C759.588,145.224 764.516,143.88 768.25,141.192C771.983,138.355 774.671,135.069 776.314,131.336C777.956,127.603 778.778,124.019 778.778,120.584C778.778,114.76 777.06,109.16 773.626,103.784C770.191,98.259 763.546,95.496 753.69,95.496L730.394,95.496L730.394,145.224L753.466,145.224Z" style="fill:rgb(54,81,135);fill-rule:nonzero;"></path> </g> <g transform="matrix(1.05051,0,0,1.05051,-13.0087,-14.0531)"> <path d="M863.84,64.136L863.84,197.64L941.344,197.64L941.344,229L831.36,229L831.36,64.136L863.84,64.136Z" style="fill:rgb(54,81,135);fill-rule:nonzero;"></path> </g> <g transform="matrix(1.05051,0,0,1.05051,-13.0087,-14.0531)"> <rect x="965.9" y="64.136" width="32.48" height="164.864" style="fill:rgb(54,81,135);fill-rule:nonzero;"></rect> </g> <g transform="matrix(1.05051,0,0,1.05051,-13.0087,-14.0531)"> <path d="M1131.88,64.136L1131.88,95.496L1091.78,95.496L1091.78,229L1059.3,229L1059.3,95.496L1020.77,95.496L1020.77,64.136L1131.88,64.136Z" style="fill:rgb(54,81,135);fill-rule:nonzero;"></path> </g> <g transform="matrix(1.05051,0,0,1.05051,-13.0087,-14.0531)"> <path d="M685.25,269.5L685.25,281.25L633,281.25L633,447L620.75,447L620.75,281.25L569,281.25L569,269.5L685.25,269.5Z" style="fill:rgb(54,81,135);fill-rule:nonzero;"></path> </g> <g transform="matrix(1.05051,0,0,1.05051,-13.0087,-14.0531)"> <path d="M837.037,269.5L837.037,281.25L739.787,281.25L739.787,351.75L827.287,351.75L827.287,363.5L739.787,363.5L739.787,435.25L840.537,435.25L840.537,447L727.537,447L727.537,269.5L837.037,269.5Z" style="fill:rgb(54,81,135);fill-rule:nonzero;"></path> </g> <g transform="matrix(1.05051,0,0,1.05051,-13.0087,-14.0531)"> <path d="M975.955,289.5C969.955,286.667 963.288,284.25 955.955,282.25C948.622,280.25 941.455,279.25 934.455,279.25C922.788,279.25 913.455,282.167 906.455,288C899.455,293.667 895.955,301 895.955,310C895.955,316.333 897.788,321.75 901.455,326.25C905.288,330.583 910.122,334.25 915.955,337.25C921.788,340.083 929.288,343.25 938.455,346.75C948.455,350.417 956.705,354.167 963.205,358C969.872,361.833 975.455,367.083 979.955,373.75C984.455,380.25 986.705,388.667 986.705,399C986.705,408.833 984.372,417.583 979.705,425.25C975.038,432.75 968.455,438.583 959.955,442.75C951.622,446.917 942.038,449 931.205,449C912.372,449 893.705,442.917 875.205,430.75L880.955,420.75C887.122,425.417 894.705,429.5 903.705,433C912.705,436.5 921.455,438.25 929.955,438.25C937.455,438.25 944.538,436.833 951.205,434C958.038,431 963.538,426.583 967.705,420.75C972.038,414.75 974.205,407.583 974.205,399.25C974.205,391.417 972.205,384.833 968.205,379.5C964.372,374.167 959.455,369.917 953.455,366.75C947.622,363.417 940.205,360.083 931.205,356.75C921.205,353.083 912.955,349.583 906.455,346.25C899.955,342.75 894.455,338.167 889.955,332.5C885.622,326.833 883.455,319.75 883.455,311.25C883.455,302.917 885.538,295.583 889.705,289.25C894.038,282.75 899.955,277.75 907.455,274.25C915.122,270.583 923.622,268.667 932.955,268.5C940.955,268.5 949.205,269.583 957.705,271.75C966.372,273.917 974.038,276.667 980.705,280L975.955,289.5Z" style="fill:rgb(54,81,135);fill-rule:nonzero;"></path> </g> <g transform="matrix(1.05051,0,0,1.05051,-13.0087,-14.0531)"> <path d="M1132.03,269.5L1132.03,281.25L1079.78,281.25L1079.78,447L1067.53,447L1067.53,281.25L1015.78,281.25L1015.78,269.5L1132.03,269.5Z" style="fill:rgb(54,81,135);fill-rule:nonzero;"></path> </g> </svg> 